<svg xmlns="http://www.w3.org/2000/svg" xmlns:xlink="http://www.w3.org/1999/xlink" width="500" zoomAndPan="magnify" viewBox="0 0 375 374.999991" height="500" preserveAspectRatio="xMidYMid meet" version="1.0"><defs><g><g id="id1"/><g id="id2"/></g><clipPath id="id3"><path d="M 101 102 L 273 102 L 273 273 L 101 273 Z M 101 102 " clip-rule="nonzero"/></clipPath><clipPath id="id4"><path d="M 48.867188 187.5 L 187.28125 49.082031 L 325.699219 187.5 L 187.28125 325.914062 Z M 48.867188 187.5 " clip-rule="nonzero"/></clipPath><clipPath id="id5"><path d="M 48.867188 187.5 L 187.28125 49.082031 L 325.699219 187.5 L 187.28125 325.914062 Z M 48.867188 187.5 " clip-rule="nonzero"/></clipPath></defs><g clip-path="url(#id3)"><g clip-path="url(#id4)"><g clip-path="url(#id5)"><path fill="rgb(68.629456%, 57.649231%, 23.919678%)" d="M 253.109375 122.566406 C 249.222656 124.355469 247.902344 128.863281 247.902344 132.828125 C 247.902344 136.480469 248.445312 140.210938 249.144531 143.867188 C 248.25 142.507812 247.316406 141.261719 246.113281 140.136719 C 244.480469 138.65625 242.265625 137.21875 239.933594 137.609375 C 237.988281 137.917969 236.238281 139.746094 236.589844 141.804688 C 236.785156 142.855469 237.679688 143.90625 238.804688 143.867188 C 239.855469 143.828125 240.75 142.777344 240.632812 141.730469 C 240.515625 140.835938 239.738281 140.214844 238.84375 140.175781 C 238.84375 140.175781 238.882812 140.136719 238.882812 140.136719 C 239.933594 139.085938 241.527344 139.433594 242.691406 140.058594 C 245.492188 141.535156 247.277344 144.332031 248.792969 147.09375 C 248.367188 146.820312 247.941406 146.546875 247.433594 146.355469 C 246.152344 145.769531 243.742188 145.148438 242.574219 146.394531 C 241.644531 147.402344 242.109375 149.113281 243.3125 149.695312 C 244.636719 150.320312 245.878906 149.464844 246.539062 148.414062 C 246.929688 148.570312 247.316406 148.804688 247.628906 149.035156 C 248.949219 149.96875 249.84375 151.328125 250.582031 152.769531 C 250.621094 152.882812 250.660156 153 250.738281 153.078125 C 251.710938 155.0625 252.332031 157.238281 252.644531 159.414062 C 252.644531 160.269531 252.683594 161.164062 252.835938 162.019531 C 252.835938 162.328125 252.835938 162.640625 252.796875 162.914062 C 252.449219 169.328125 247.976562 173.875 243.121094 177.566406 C 242.964844 176.632812 242.769531 175.664062 242.535156 174.730469 C 245.839844 172.125 248.484375 168.550781 249.378906 164.390625 C 250.195312 160.464844 249.300781 155.839844 246.382812 152.921875 C 245.023438 151.5625 243.199219 150.511719 241.253906 150.667969 C 239.308594 150.824219 237.5625 152.261719 237.054688 154.167969 C 236.550781 156.070312 237.40625 158.558594 239.386719 159.296875 C 241.292969 160.035156 243.199219 158.363281 242.730469 156.421875 C 242.382812 154.828125 240.320312 154.089844 239.15625 155.253906 C 239.15625 155.023438 239.195312 154.75 239.308594 154.554688 C 239.816406 153.195312 241.292969 152.652344 242.652344 153.078125 C 245.296875 153.933594 246.851562 156.886719 247.355469 159.492188 C 248.25 164.585938 245.722656 169.132812 242.03125 172.4375 C 240.398438 166.605469 237.871094 161.046875 234.453125 155.996094 L 234.453125 140.367188 L 218.824219 140.367188 C 213.539062 136.792969 207.746094 134.1875 201.683594 132.632812 C 204.949219 129.058594 209.417969 126.609375 214.433594 127.503906 C 217 127.96875 219.992188 129.484375 220.847656 132.207031 C 221.273438 133.566406 220.769531 135.003906 219.371094 135.546875 C 219.136719 135.625 218.902344 135.625 218.671875 135.703125 C 219.796875 134.578125 219.058594 132.515625 217.503906 132.128906 C 215.484375 131.660156 213.890625 133.566406 214.628906 135.472656 C 215.40625 137.414062 217.816406 138.269531 219.757812 137.804688 C 221.664062 137.296875 223.101562 135.625 223.257812 133.605469 C 223.414062 131.660156 222.363281 129.835938 221.003906 128.472656 C 218.085938 125.558594 213.460938 124.664062 209.535156 125.480469 C 205.414062 126.335938 201.917969 128.902344 199.3125 132.128906 C 198.339844 131.933594 197.371094 131.738281 196.4375 131.582031 C 200.089844 126.765625 204.597656 122.332031 210.972656 122.023438 C 211.285156 122.023438 211.597656 122.023438 211.867188 121.984375 C 212.761719 122.097656 213.617188 122.175781 214.472656 122.175781 C 216.648438 122.488281 218.824219 123.109375 220.808594 124.082031 C 220.886719 124.160156 221.003906 124.199219 221.121094 124.238281 C 222.558594 124.976562 223.917969 125.871094 224.851562 127.191406 C 225.121094 127.542969 225.316406 127.890625 225.472656 128.28125 C 224.34375 128.941406 223.527344 130.222656 224.191406 131.507812 C 224.773438 132.710938 226.523438 133.214844 227.492188 132.246094 C 228.699219 131.117188 228.078125 128.707031 227.53125 127.386719 C 227.300781 126.917969 227.066406 126.453125 226.792969 126.023438 C 229.515625 127.582031 232.351562 129.328125 233.828125 132.128906 C 234.453125 133.292969 234.800781 134.886719 233.753906 135.9375 C 233.753906 135.9375 233.714844 135.976562 233.714844 135.976562 C 233.636719 135.121094 233.050781 134.304688 232.160156 134.1875 C 231.109375 134.070312 230.097656 134.925781 230.019531 136.015625 C 229.980469 137.140625 230.992188 138.074219 232.082031 138.230469 C 234.140625 138.582031 235.96875 136.832031 236.277344 134.886719 C 236.667969 132.554688 235.230469 130.339844 233.753906 128.707031 C 232.664062 127.542969 231.382812 126.570312 230.019531 125.675781 C 233.636719 126.414062 237.40625 126.917969 241.058594 126.917969 C 245.023438 126.917969 249.535156 125.597656 251.320312 121.710938 C 252.71875 118.601562 251.359375 114.132812 247.667969 113.394531 C 245.878906 113.082031 243.859375 113.703125 242.613281 115.023438 C 241.527344 116.191406 240.941406 118.019531 241.796875 119.496094 C 242.265625 120.351562 243.234375 120.933594 244.207031 120.816406 C 245.140625 120.738281 245.917969 119.960938 245.996094 119.027344 C 246.113281 117.355469 244.246094 116.890625 243.273438 117.628906 C 243.390625 116.734375 244.089844 115.957031 244.792969 115.570312 C 247.046875 114.324219 249.417969 115.53125 250 117.902344 C 250.660156 120.503906 248.792969 122.761719 246.578125 123.886719 C 244.089844 125.210938 241.136719 125.054688 238.417969 124.898438 C 236.125 124.703125 233.828125 124.433594 231.535156 124.003906 C 232.082031 123.925781 232.625 123.769531 233.128906 123.65625 C 236.472656 122.800781 240.59375 121.089844 241.097656 117.242188 C 241.566406 113.742188 239.195312 110.671875 235.65625 110.398438 C 233.984375 110.28125 232.195312 110.828125 231.070312 112.109375 C 229.824219 113.585938 229.980469 115.765625 231.265625 117.125 C 231.925781 117.863281 233.011719 118.25 233.945312 117.941406 C 234.800781 117.628906 235.5 116.773438 235.460938 115.878906 C 235.34375 114.285156 233.402344 113.742188 232.429688 114.636719 C 232.3125 113.585938 233.363281 112.925781 234.21875 112.691406 C 236.007812 112.226562 238.066406 113.121094 238.6875 114.910156 C 240.4375 119.765625 233.402344 121.515625 229.980469 121.984375 C 227.300781 122.332031 224.617188 122.214844 221.933594 121.867188 C 221.507812 121.671875 221.15625 121.476562 220.769531 121.320312 C 222.402344 121.089844 224.113281 120.855469 225.746094 120.621094 C 226.792969 120.507812 228.039062 120.507812 228.894531 119.804688 C 229.59375 119.261719 229.863281 118.367188 229.710938 117.511719 C 229.320312 115.648438 226.753906 115.023438 225.628906 116.617188 C 225.199219 117.203125 225.199219 117.980469 225.898438 118.367188 C 225.898438 118.367188 225.9375 118.40625 225.9375 118.40625 C 224.421875 118.601562 222.945312 118.835938 221.429688 119.027344 C 219.875 119.261719 218.203125 119.535156 216.609375 119.652344 C 214.9375 119.765625 213.304688 119.535156 211.636719 119.574219 C 208.449219 119.652344 205.300781 120.542969 202.617188 122.214844 C 199.078125 124.433594 196.398438 127.65625 193.988281 131 C 192.042969 130.765625 190.023438 130.613281 188.003906 130.613281 C 188.003906 130.535156 187.964844 130.417969 187.886719 130.339844 C 188.933594 128.824219 190.257812 127.347656 191.617188 126.0625 C 193.445312 124.394531 195.152344 122.605469 197.019531 120.972656 C 198.847656 119.378906 200.789062 117.902344 202.929688 116.695312 C 207.125 114.285156 211.867188 112.964844 216.726562 113.78125 C 217.699219 113.976562 218.632812 114.207031 219.527344 114.558594 C 219.214844 114.949219 219.019531 115.453125 219.136719 115.957031 C 219.410156 117.394531 221.042969 118.097656 222.246094 117.28125 C 223.492188 116.347656 223.179688 114.714844 222.089844 113.859375 C 221.042969 112.964844 219.449219 112.539062 218.125 112.226562 C 213.460938 111.136719 208.757812 111.953125 204.445312 113.859375 C 205.027344 111.332031 204.5625 108.613281 203.238281 106.355469 C 201.449219 103.402344 198.03125 101.304688 194.53125 102.390625 C 191.1875 103.402344 189.011719 107.210938 190.761719 110.4375 C 191.539062 111.914062 193.015625 112.925781 194.6875 112.964844 C 196.320312 113.042969 197.992188 112.226562 198.730469 110.710938 C 199.15625 109.816406 199.15625 108.726562 198.535156 107.949219 C 197.953125 107.210938 196.902344 107.019531 196.125 107.484375 C 194.609375 108.300781 195.230469 110.246094 196.554688 110.554688 C 196.515625 110.59375 196.515625 110.59375 196.476562 110.632812 C 195.738281 111.136719 194.6875 111.253906 193.871094 110.90625 C 191.929688 110.050781 191.695312 107.484375 192.742188 105.890625 C 193.910156 104.179688 196.164062 103.558594 198.109375 104.179688 C 200.089844 104.839844 201.566406 106.628906 202.34375 108.496094 C 203.160156 110.554688 203.121094 112.847656 202.265625 114.871094 C 202.226562 114.910156 202.226562 114.988281 202.226562 114.988281 C 201.722656 115.257812 201.257812 115.570312 200.75 115.839844 C 199.546875 116.578125 198.378906 117.433594 197.292969 118.367188 C 196.746094 116.578125 195.890625 114.792969 194.105469 113.9375 C 192.199219 113.042969 189.441406 113.546875 188.039062 115.179688 C 186.679688 116.773438 186.71875 119.144531 188.546875 120.351562 C 189.285156 120.855469 190.296875 121.011719 191.152344 120.777344 C 192.277344 120.429688 193.25 119.378906 192.898438 118.171875 C 192.550781 116.8125 190.683594 116.347656 189.945312 117.628906 C 189.671875 118.058594 189.75 118.601562 189.945312 119.027344 C 189.402344 118.875 188.933594 118.40625 188.855469 117.863281 C 188.703125 116.773438 189.710938 115.917969 190.644531 115.609375 C 191.773438 115.179688 192.9375 115.179688 193.910156 115.996094 C 195 116.929688 195.425781 118.367188 195.777344 119.726562 C 194.261719 121.089844 192.820312 122.527344 191.421875 123.925781 C 189.671875 125.285156 188.15625 126.878906 186.835938 128.667969 C 185.515625 126.878906 184 125.285156 182.25 123.925781 C 180.851562 122.449219 179.410156 121.011719 177.894531 119.726562 C 178.246094 118.367188 178.671875 116.929688 179.761719 115.996094 C 180.695312 115.21875 181.9375 115.21875 183.027344 115.609375 C 183.921875 115.957031 184.929688 116.8125 184.816406 117.863281 C 184.738281 118.40625 184.269531 118.875 183.726562 119.027344 C 183.921875 118.601562 184 118.058594 183.726562 117.628906 C 182.949219 116.386719 181.082031 116.851562 180.773438 118.171875 C 180.460938 119.417969 181.433594 120.46875 182.519531 120.777344 C 183.375 121.011719 184.386719 120.855469 185.125 120.351562 C 186.953125 119.144531 186.992188 116.773438 185.632812 115.179688 C 184.230469 113.546875 181.511719 113.003906 179.566406 113.9375 C 177.777344 114.792969 176.925781 116.578125 176.378906 118.367188 C 175.253906 117.472656 174.085938 116.617188 172.921875 115.839844 C 172.453125 115.53125 171.949219 115.257812 171.441406 114.988281 C 171.40625 114.949219 171.441406 114.910156 171.40625 114.871094 C 170.550781 112.847656 170.511719 110.554688 171.328125 108.496094 C 172.066406 106.589844 173.582031 104.839844 175.5625 104.179688 C 177.46875 103.519531 179.761719 104.179688 180.925781 105.890625 C 182.015625 107.445312 181.742188 110.050781 179.800781 110.90625 C 178.984375 111.253906 177.894531 111.175781 177.195312 110.632812 C 177.15625 110.59375 177.15625 110.59375 177.117188 110.554688 C 178.441406 110.246094 179.0625 108.300781 177.546875 107.484375 C 176.730469 107.058594 175.71875 107.210938 175.136719 107.949219 C 174.476562 108.765625 174.515625 109.816406 174.941406 110.710938 C 175.679688 112.226562 177.351562 113.042969 178.984375 112.964844 C 180.65625 112.925781 182.132812 111.914062 182.910156 110.4375 C 184.660156 107.210938 182.445312 103.363281 179.140625 102.390625 C 175.640625 101.304688 172.222656 103.402344 170.433594 106.355469 C 169.074219 108.574219 168.644531 111.332031 169.226562 113.859375 C 164.914062 111.953125 160.210938 111.136719 155.546875 112.226562 C 154.222656 112.539062 152.628906 112.964844 151.582031 113.859375 C 150.453125 114.753906 150.140625 116.386719 151.425781 117.28125 C 152.589844 118.136719 154.261719 117.394531 154.535156 115.957031 C 154.613281 115.492188 154.457031 114.949219 154.144531 114.558594 C 155.039062 114.207031 156.011719 113.9375 156.945312 113.78125 C 161.804688 112.964844 166.546875 114.285156 170.742188 116.695312 C 172.84375 117.941406 174.824219 119.378906 176.652344 120.972656 C 178.519531 122.605469 180.226562 124.394531 182.054688 126.0625 C 183.453125 127.308594 184.738281 128.746094 185.785156 130.339844 C 185.746094 130.457031 185.667969 130.535156 185.667969 130.613281 C 183.6875 130.652344 181.742188 130.804688 179.761719 131.078125 C 177.3125 127.695312 174.59375 124.433594 171.015625 122.175781 C 168.332031 120.507812 165.144531 119.574219 161.996094 119.535156 C 160.328125 119.496094 158.695312 119.726562 157.023438 119.613281 C 155.429688 119.496094 153.757812 119.222656 152.203125 118.988281 C 150.6875 118.796875 149.210938 118.5625 147.695312 118.367188 C 147.695312 118.367188 147.734375 118.328125 147.734375 118.328125 C 148.433594 117.941406 148.433594 117.164062 148.003906 116.578125 C 146.878906 114.984375 144.3125 115.609375 143.921875 117.472656 C 143.769531 118.328125 144.039062 119.222656 144.738281 119.765625 C 145.59375 120.46875 146.878906 120.429688 147.886719 120.582031 C 149.519531 120.816406 151.230469 121.050781 152.863281 121.285156 C 152.476562 121.4375 152.046875 121.632812 151.699219 121.828125 C 149.054688 122.214844 146.332031 122.292969 143.652344 121.945312 C 140.230469 121.476562 133.195312 119.726562 134.945312 114.871094 C 135.566406 113.082031 137.664062 112.148438 139.414062 112.652344 C 140.308594 112.925781 141.320312 113.546875 141.203125 114.597656 C 140.191406 113.742188 138.25 114.207031 138.171875 115.839844 C 138.09375 116.773438 138.832031 117.667969 139.6875 117.902344 C 140.660156 118.25 141.707031 117.824219 142.367188 117.085938 C 143.652344 115.726562 143.808594 113.46875 142.5625 112.070312 C 141.4375 110.789062 139.648438 110.246094 137.976562 110.359375 C 134.4375 110.632812 132.066406 113.703125 132.535156 117.203125 C 133.039062 121.050781 137.238281 122.761719 140.503906 123.617188 C 141.046875 123.769531 141.589844 123.847656 142.097656 123.964844 C 139.84375 124.355469 137.511719 124.664062 135.214844 124.859375 C 132.496094 125.09375 129.542969 125.171875 127.054688 123.847656 C 124.839844 122.722656 122.972656 120.46875 123.632812 117.863281 C 124.253906 115.453125 126.625 114.246094 128.84375 115.53125 C 129.582031 115.957031 130.28125 116.734375 130.359375 117.589844 C 129.386719 116.851562 127.480469 117.28125 127.636719 118.988281 C 127.714844 119.921875 128.492188 120.699219 129.425781 120.777344 C 130.398438 120.894531 131.328125 120.273438 131.835938 119.457031 C 132.691406 117.980469 132.066406 116.191406 131.019531 114.984375 C 129.8125 113.625 127.792969 113.003906 125.964844 113.355469 C 122.3125 114.054688 120.875 118.523438 122.3125 121.671875 C 124.101562 125.558594 128.609375 126.878906 132.574219 126.878906 C 136.226562 126.878906 139.957031 126.335938 143.613281 125.636719 C 142.253906 126.53125 141.007812 127.464844 139.882812 128.667969 C 138.402344 130.300781 136.964844 132.515625 137.355469 134.847656 C 137.664062 136.792969 139.492188 138.542969 141.550781 138.191406 C 142.601562 137.996094 143.652344 137.101562 143.613281 135.976562 C 143.574219 134.925781 142.523438 134.03125 141.472656 134.148438 C 140.582031 134.265625 139.957031 135.042969 139.917969 135.9375 C 139.917969 135.9375 139.882812 135.898438 139.882812 135.898438 C 138.832031 134.847656 139.179688 133.253906 139.804688 132.089844 C 141.28125 129.289062 144.078125 127.503906 146.839844 125.988281 C 146.566406 126.414062 146.292969 126.839844 146.101562 127.347656 C 145.515625 128.628906 144.894531 131.039062 146.140625 132.207031 C 147.148438 133.136719 148.859375 132.671875 149.441406 131.46875 C 150.066406 130.144531 149.210938 128.902344 148.160156 128.242188 C 148.316406 127.851562 148.550781 127.464844 148.78125 127.152344 C 149.714844 125.832031 151.074219 124.9375 152.515625 124.199219 C 152.628906 124.160156 152.746094 124.121094 152.824219 124.042969 C 154.808594 123.070312 156.984375 122.449219 159.160156 122.136719 C 160.015625 122.136719 160.910156 122.097656 161.765625 121.945312 C 162.074219 121.945312 162.386719 121.945312 162.660156 121.984375 C 169.074219 122.332031 173.621094 126.804688 177.3125 131.660156 C 176.378906 131.816406 175.40625 132.011719 174.476562 132.246094 C 171.871094 128.941406 168.292969 126.296875 164.136719 125.402344 C 160.210938 124.585938 155.585938 125.480469 152.667969 128.394531 C 151.308594 129.757812 150.257812 131.582031 150.414062 133.527344 C 150.570312 135.472656 152.007812 137.21875 153.914062 137.726562 C 155.816406 138.230469 158.304688 137.375 159.042969 135.394531 C 159.78125 133.488281 158.109375 131.582031 156.167969 132.050781 C 154.574219 132.398438 153.835938 134.460938 155 135.625 C 154.769531 135.625 154.496094 135.585938 154.300781 135.472656 C 152.941406 134.964844 152.398438 133.488281 152.824219 132.128906 C 153.679688 129.484375 156.632812 127.929688 159.238281 127.425781 C 164.332031 126.53125 168.878906 129.058594 172.183594 132.75 C 166.351562 134.382812 160.792969 136.910156 155.738281 140.328125 L 140.113281 140.328125 L 140.113281 155.957031 C 136.539062 161.242188 133.933594 167.035156 132.378906 173.097656 C 128.804688 169.832031 126.355469 165.363281 127.25 160.347656 C 127.714844 157.78125 129.230469 154.789062 131.953125 153.933594 C 133.3125 153.507812 134.75 154.011719 135.292969 155.410156 C 135.371094 155.644531 135.371094 155.878906 135.449219 156.109375 C 134.324219 154.984375 132.261719 155.722656 131.875 157.277344 C 131.40625 159.296875 133.3125 160.890625 135.214844 160.152344 C 137.160156 159.375 138.015625 156.964844 137.546875 155.023438 C 137.042969 153.117188 135.371094 151.679688 133.351562 151.523438 C 131.40625 151.367188 129.582031 152.417969 128.21875 153.777344 C 125.304688 156.695312 124.410156 161.320312 125.226562 165.246094 C 126.082031 169.367188 128.648438 172.863281 131.875 175.46875 C 131.679688 176.441406 131.484375 177.410156 131.328125 178.34375 C 126.507812 174.691406 122.078125 170.183594 121.765625 163.808594 C 121.765625 163.496094 121.765625 163.183594 121.730469 162.914062 C 121.84375 162.019531 121.921875 161.164062 121.921875 160.308594 C 122.234375 158.132812 122.855469 155.957031 123.828125 153.972656 C 123.90625 153.894531 123.945312 153.777344 123.984375 153.660156 C 124.722656 152.222656 125.617188 150.863281 126.9375 149.929688 C 127.285156 149.660156 127.636719 149.464844 128.027344 149.308594 C 128.6875 150.4375 129.96875 151.253906 131.25 150.589844 C 132.457031 150.007812 132.960938 148.257812 131.992188 147.289062 C 130.863281 146.082031 128.453125 146.703125 127.132812 147.25 C 126.664062 147.480469 126.199219 147.714844 125.769531 147.988281 C 127.324219 145.265625 129.074219 142.429688 131.875 140.953125 C 133.039062 140.328125 134.632812 139.980469 135.683594 141.027344 C 135.683594 141.027344 135.722656 141.066406 135.722656 141.066406 C 134.867188 141.144531 134.050781 141.730469 133.933594 142.621094 C 133.816406 143.671875 134.671875 144.683594 135.761719 144.761719 C 136.886719 144.800781 137.820312 143.789062 137.976562 142.699219 C 138.324219 140.640625 136.578125 138.8125 134.632812 138.503906 C 132.300781 138.113281 130.085938 139.550781 128.453125 141.027344 C 127.285156 142.117188 126.316406 143.398438 125.421875 144.761719 C 126.160156 141.144531 126.664062 137.375 126.664062 133.722656 C 126.664062 129.757812 125.34375 125.246094 121.457031 123.460938 C 118.347656 122.0625 113.875 123.421875 113.136719 127.113281 C 112.828125 128.902344 113.449219 130.921875 114.769531 132.167969 C 115.9375 133.253906 117.765625 133.839844 119.242188 132.984375 C 120.097656 132.515625 120.679688 131.542969 120.5625 130.574219 C 120.484375 129.640625 119.707031 128.863281 118.773438 128.785156 C 117.101562 128.667969 116.636719 130.535156 117.375 131.507812 C 116.480469 131.390625 115.703125 130.691406 115.316406 129.988281 C 114.070312 127.734375 115.277344 125.363281 117.648438 124.78125 C 120.25 124.121094 122.507812 125.988281 123.632812 128.203125 C 124.953125 130.691406 124.800781 133.644531 124.644531 136.363281 C 124.449219 138.65625 124.175781 140.953125 123.75 143.246094 C 123.671875 142.699219 123.515625 142.15625 123.398438 141.652344 C 122.546875 138.308594 120.835938 134.1875 116.988281 133.683594 C 113.488281 133.214844 110.417969 135.585938 110.144531 139.125 C 110.027344 140.796875 110.574219 142.582031 111.855469 143.710938 C 113.332031 144.953125 115.507812 144.800781 116.871094 143.515625 C 117.609375 142.855469 117.996094 141.769531 117.6875 140.835938 C 117.375 139.980469 116.519531 139.28125 115.625 139.320312 C 114.03125 139.433594 113.488281 141.378906 114.382812 142.351562 C 113.332031 142.46875 112.671875 141.417969 112.4375 140.5625 C 111.972656 138.773438 112.867188 136.714844 114.65625 136.09375 C 119.511719 134.34375 121.261719 141.378906 121.730469 144.800781 C 122.078125 147.480469 121.960938 150.164062 121.613281 152.84375 C 121.417969 153.273438 121.222656 153.625 121.066406 154.011719 C 120.835938 152.378906 120.601562 150.667969 120.367188 149.035156 C 120.25 147.988281 120.25 146.742188 119.550781 145.886719 C 119.007812 145.1875 118.113281 144.917969 117.257812 145.070312 C 115.394531 145.460938 114.769531 148.027344 116.363281 149.152344 C 116.949219 149.582031 117.726562 149.582031 118.113281 148.882812 C 118.113281 148.882812 118.152344 148.84375 118.152344 148.84375 C 118.347656 150.359375 118.582031 151.835938 118.773438 153.351562 C 119.007812 154.90625 119.28125 156.578125 119.394531 158.171875 C 119.511719 159.84375 119.28125 161.476562 119.320312 163.144531 C 119.394531 166.332031 120.289062 169.480469 121.960938 172.164062 C 124.175781 175.703125 127.402344 178.382812 130.746094 180.792969 C 130.511719 182.738281 130.359375 184.757812 130.359375 186.777344 C 130.28125 186.777344 130.164062 186.816406 130.085938 186.894531 C 128.570312 185.847656 127.09375 184.523438 125.808594 183.164062 C 124.136719 181.335938 122.351562 179.628906 120.71875 177.761719 C 119.125 175.933594 117.648438 173.992188 116.441406 171.851562 C 114.03125 167.65625 112.710938 162.914062 113.527344 158.054688 C 113.722656 157.082031 113.953125 156.148438 114.304688 155.253906 C 114.691406 155.566406 115.199219 155.761719 115.703125 155.644531 C 117.140625 155.371094 117.839844 153.738281 117.027344 152.535156 C 116.09375 151.289062 114.460938 151.601562 113.605469 152.691406 C 112.710938 153.738281 112.285156 155.332031 111.972656 156.65625 C 110.882812 161.320312 111.699219 166.023438 113.605469 170.335938 C 111.078125 169.753906 108.355469 170.21875 106.101562 171.542969 C 103.148438 173.332031 101.050781 176.75 102.136719 180.25 C 103.148438 183.59375 106.957031 185.769531 110.183594 184.019531 C 111.660156 183.242188 112.671875 181.765625 112.710938 180.09375 C 112.789062 178.460938 111.972656 176.789062 110.457031 176.050781 C 109.5625 175.625 108.472656 175.625 107.695312 176.246094 C 106.957031 176.828125 106.765625 177.878906 107.230469 178.65625 C 108.046875 180.171875 109.988281 179.550781 110.300781 178.226562 C 110.339844 178.265625 110.339844 178.265625 110.378906 178.304688 C 110.882812 179.042969 111 180.09375 110.652344 180.910156 C 109.796875 182.851562 107.230469 183.085938 105.636719 182.035156 C 103.925781 180.871094 103.304688 178.617188 103.925781 176.671875 C 104.585938 174.691406 106.375 173.214844 108.242188 172.4375 C 110.300781 171.621094 112.59375 171.660156 114.617188 172.515625 C 114.65625 172.554688 114.730469 172.554688 114.730469 172.554688 C 115.003906 173.058594 115.316406 173.523438 115.585938 174.03125 C 116.324219 175.234375 117.179688 176.402344 118.113281 177.488281 C 116.324219 178.035156 114.539062 178.886719 113.683594 180.675781 C 112.789062 182.582031 113.292969 185.339844 114.925781 186.742188 C 116.519531 188.101562 118.890625 188.0625 120.097656 186.234375 C 120.601562 185.496094 120.757812 184.484375 120.523438 183.628906 C 120.175781 182.503906 119.125 181.53125 117.917969 181.882812 C 116.558594 182.230469 116.09375 184.097656 117.375 184.835938 C 117.804688 185.109375 118.347656 185.03125 118.773438 184.835938 C 118.617188 185.378906 118.152344 185.847656 117.609375 185.925781 C 116.519531 186.078125 115.664062 185.070312 115.355469 184.136719 C 114.925781 183.007812 114.925781 181.84375 115.742188 180.871094 C 116.675781 179.78125 118.113281 179.355469 119.472656 179.003906 C 120.835938 180.519531 122.273438 181.960938 123.710938 183.320312 C 125.070312 185.070312 126.664062 186.585938 128.453125 187.90625 C 126.664062 189.226562 125.070312 190.742188 123.710938 192.492188 C 122.234375 193.890625 120.796875 195.332031 119.511719 196.847656 C 118.152344 196.496094 116.714844 196.070312 115.78125 194.980469 C 115.003906 194.046875 115.003906 192.804688 115.394531 191.714844 C 115.742188 190.820312 116.597656 189.8125 117.648438 189.925781 C 118.191406 190.003906 118.65625 190.472656 118.8125 191.015625 C 118.386719 190.820312 117.839844 190.742188 117.414062 191.015625 C 116.171875 191.792969 116.636719 193.660156 117.957031 193.96875 C 119.203125 194.28125 120.25 193.308594 120.5625 192.222656 C 120.796875 191.367188 120.640625 190.355469 120.136719 189.617188 C 118.929688 187.789062 116.558594 187.75 114.964844 189.113281 C 113.332031 190.511719 112.789062 193.230469 113.722656 195.175781 C 114.578125 196.964844 116.363281 197.816406 118.152344 198.363281 C 117.257812 199.488281 116.402344 200.65625 115.625 201.820312 C 115.316406 202.289062 115.042969 202.792969 114.769531 203.300781 C 114.730469 203.335938 114.691406 203.300781 114.65625 203.335938 C 112.632812 204.191406 110.339844 204.230469 108.28125 203.414062 C 106.375 202.675781 104.625 201.160156 103.964844 199.179688 C 103.304688 197.273438 103.964844 194.980469 105.675781 193.816406 C 107.230469 192.726562 109.835938 193 110.691406 194.941406 C 111.039062 195.757812 110.960938 196.847656 110.417969 197.546875 C 110.378906 197.585938 110.378906 197.585938 110.339844 197.625 C 110.027344 196.300781 108.085938 195.679688 107.269531 197.195312 C 106.839844 198.011719 106.996094 199.023438 107.734375 199.605469 C 108.550781 200.265625 109.601562 200.226562 110.496094 199.800781 C 112.011719 199.0625 112.828125 197.390625 112.75 195.757812 C 112.710938 194.085938 111.699219 192.609375 110.222656 191.832031 C 106.996094 190.082031 103.148438 192.296875 102.175781 195.601562 C 101.089844 199.101562 103.1875 202.523438 106.140625 204.308594 C 108.355469 205.671875 111.117188 206.097656 113.644531 205.515625 C 111.738281 209.828125 110.921875 214.53125 112.011719 219.195312 C 112.320312 220.519531 112.75 222.113281 113.644531 223.160156 C 114.539062 224.289062 116.171875 224.601562 117.0625 223.316406 C 117.917969 222.152344 117.179688 220.480469 115.742188 220.207031 C 115.277344 220.128906 114.730469 220.285156 114.34375 220.597656 C 113.992188 219.703125 113.722656 218.730469 113.566406 217.796875 C 112.75 212.9375 114.070312 208.195312 116.480469 204 C 117.726562 201.898438 119.164062 199.917969 120.757812 198.089844 C 122.390625 196.222656 124.175781 194.515625 125.847656 192.6875 C 127.09375 191.289062 128.53125 190.003906 130.125 188.957031 C 130.242188 188.996094 130.320312 189.074219 130.398438 189.074219 C 130.4375 191.054688 130.589844 193 130.863281 194.980469 C 127.480469 197.429688 124.214844 200.152344 121.960938 203.726562 C 120.289062 206.410156 119.359375 209.597656 119.320312 212.746094 C 119.28125 214.414062 119.511719 216.046875 119.394531 217.71875 C 119.28125 219.3125 119.007812 220.984375 118.773438 222.539062 C 118.582031 224.054688 118.347656 225.53125 118.152344 227.046875 C 118.152344 227.046875 118.113281 227.007812 118.113281 227.007812 C 117.726562 226.308594 116.949219 226.308594 116.363281 226.738281 C 114.769531 227.863281 115.394531 230.429688 117.257812 230.820312 C 118.113281 230.972656 119.007812 230.703125 119.550781 230.003906 C 120.25 229.148438 120.210938 227.863281 120.367188 226.855469 C 120.601562 225.222656 120.835938 223.511719 121.066406 221.878906 C 121.222656 222.265625 121.417969 222.695312 121.613281 223.042969 C 122 225.6875 122.078125 228.410156 121.730469 231.089844 C 121.261719 234.511719 119.511719 241.546875 114.65625 239.796875 C 112.867188 239.175781 111.933594 237.078125 112.4375 235.328125 C 112.710938 234.433594 113.332031 233.421875 114.382812 233.539062 C 113.527344 234.550781 113.992188 236.492188 115.625 236.570312 C 116.558594 236.648438 117.453125 235.910156 117.6875 235.054688 C 118.035156 234.085938 117.609375 233.035156 116.871094 232.375 C 115.507812 231.089844 113.253906 230.933594 111.855469 232.179688 C 110.574219 233.304688 110.027344 235.09375 110.144531 236.765625 C 110.417969 240.304688 113.488281 242.675781 116.988281 242.207031 C 120.835938 241.703125 122.546875 237.503906 123.398438 234.238281 C 123.554688 233.695312 123.632812 233.152344 123.75 232.644531 C 124.136719 234.898438 124.449219 237.234375 124.644531 239.527344 C 124.878906 242.246094 124.953125 245.199219 123.632812 247.6875 C 122.507812 249.902344 120.25 251.769531 117.648438 251.109375 C 115.238281 250.488281 114.03125 248.117188 115.316406 245.902344 C 115.742188 245.160156 116.519531 244.460938 117.375 244.382812 C 116.636719 245.355469 117.0625 247.261719 118.773438 247.105469 C 119.707031 247.027344 120.484375 246.25 120.5625 245.316406 C 120.679688 244.34375 120.058594 243.414062 119.242188 242.90625 C 117.765625 242.050781 115.976562 242.675781 114.769531 243.722656 C 113.410156 244.929688 112.789062 246.949219 113.136719 248.777344 C 113.839844 252.429688 118.308594 253.867188 121.457031 252.429688 C 125.34375 250.644531 126.664062 246.132812 126.664062 242.167969 C 126.664062 238.515625 126.121094 234.785156 125.421875 231.128906 C 126.316406 232.492188 127.25 233.734375 128.453125 234.863281 C 130.046875 236.378906 132.300781 237.777344 134.632812 237.386719 C 136.578125 237.078125 138.324219 235.25 137.976562 233.191406 C 137.78125 232.140625 136.886719 231.089844 135.761719 231.128906 C 134.710938 231.167969 133.816406 232.21875 133.933594 233.269531 C 134.050781 234.160156 134.828125 234.785156 135.722656 234.824219 C 135.722656 234.824219 135.683594 234.863281 135.683594 234.863281 C 134.632812 235.910156 133.039062 235.5625 131.875 234.9375 C 129.074219 233.460938 127.285156 230.664062 125.769531 227.902344 C 126.199219 228.175781 126.625 228.449219 127.132812 228.640625 C 128.414062 229.226562 130.824219 229.847656 131.992188 228.601562 C 132.921875 227.59375 132.457031 225.882812 131.25 225.300781 C 129.929688 224.675781 128.6875 225.53125 128.027344 226.582031 C 127.636719 226.425781 127.25 226.191406 126.9375 225.960938 C 125.617188 225.027344 124.722656 223.667969 123.984375 222.230469 C 123.945312 222.113281 123.90625 221.996094 123.828125 221.917969 C 122.855469 219.933594 122.234375 217.757812 121.921875 215.582031 C 121.921875 214.726562 121.882812 213.832031 121.730469 212.976562 C 121.730469 212.667969 121.730469 212.355469 121.765625 212.082031 C 122.117188 205.671875 126.585938 201.121094 131.445312 197.429688 C 131.601562 198.363281 131.796875 199.335938 132.027344 200.265625 C 128.726562 202.871094 126.082031 206.449219 125.1875 210.605469 C 124.371094 214.53125 125.265625 219.15625 128.179688 222.074219 C 129.542969 223.433594 131.367188 224.484375 133.3125 224.328125 C 135.253906 224.171875 137.003906 222.734375 137.511719 220.828125 C 138.015625 218.925781 137.160156 216.4375 135.175781 215.699219 C 133.273438 214.960938 131.367188 216.632812 131.835938 218.574219 C 132.183594 220.167969 134.246094 220.90625 135.410156 219.742188 C 135.410156 219.972656 135.371094 220.246094 135.253906 220.441406 C 134.75 221.800781 133.273438 222.34375 131.914062 221.917969 C 129.269531 221.0625 127.714844 218.109375 127.210938 215.503906 C 126.316406 210.414062 128.84375 205.863281 132.535156 202.558594 C 134.167969 208.390625 136.695312 213.949219 140.113281 219.003906 L 140.113281 234.628906 L 155.738281 234.628906 C 161.027344 238.203125 166.816406 240.808594 172.882812 242.363281 C 169.617188 245.9375 165.144531 248.386719 160.132812 247.492188 C 157.566406 247.027344 154.574219 245.511719 153.71875 242.789062 C 153.292969 241.429688 153.796875 239.992188 155.195312 239.449219 C 155.429688 239.371094 155.664062 239.371094 155.894531 239.292969 C 154.769531 240.417969 155.507812 242.480469 157.0625 242.867188 C 159.082031 243.335938 160.675781 241.429688 159.9375 239.527344 C 159.160156 237.582031 156.75 236.726562 154.808594 237.195312 C 152.902344 237.699219 151.464844 239.371094 151.308594 241.390625 C 151.152344 243.335938 152.203125 245.160156 153.5625 246.523438 C 156.476562 249.4375 161.105469 250.332031 165.03125 249.515625 C 169.148438 248.660156 172.648438 246.09375 175.253906 242.867188 C 176.222656 243.0625 177.195312 243.257812 178.128906 243.414062 C 174.476562 248.234375 169.964844 252.664062 163.589844 252.976562 C 163.28125 252.976562 162.96875 252.976562 162.699219 253.011719 C 161.804688 252.898438 160.949219 252.820312 160.09375 252.820312 C 157.917969 252.507812 155.738281 251.886719 153.757812 250.914062 C 153.679688 250.835938 153.5625 250.796875 153.445312 250.757812 C 152.007812 250.019531 150.648438 249.125 149.714844 247.804688 C 149.441406 247.457031 149.25 247.105469 149.09375 246.714844 C 150.21875 246.054688 151.035156 244.773438 150.375 243.492188 C 149.792969 242.285156 148.042969 241.78125 147.070312 242.753906 C 145.867188 243.878906 146.488281 246.289062 147.03125 247.609375 C 147.265625 248.078125 147.5 248.542969 147.773438 248.972656 C 145.050781 247.417969 142.214844 245.667969 140.734375 242.867188 C 140.113281 241.703125 139.765625 240.109375 140.8125 239.058594 C 140.8125 239.058594 140.851562 239.019531 140.851562 239.019531 C 140.929688 239.875 141.511719 240.691406 142.40625 240.808594 C 143.457031 240.925781 144.46875 240.070312 144.546875 238.980469 C 144.585938 237.855469 143.574219 236.921875 142.484375 236.765625 C 140.425781 236.417969 138.597656 238.164062 138.289062 240.109375 C 137.898438 242.441406 139.335938 244.65625 140.8125 246.289062 C 141.902344 247.457031 143.183594 248.425781 144.546875 249.320312 C 140.929688 248.582031 137.160156 248.078125 133.507812 248.078125 C 129.542969 248.078125 125.03125 249.398438 123.246094 253.285156 C 121.84375 256.394531 123.207031 260.867188 126.898438 261.605469 C 128.6875 261.914062 130.707031 261.292969 131.953125 259.972656 C 133.039062 258.804688 133.621094 256.976562 132.769531 255.5 C 132.300781 254.644531 131.328125 254.0625 130.359375 254.179688 C 129.425781 254.257812 128.648438 255.035156 128.570312 255.96875 C 128.453125 257.640625 130.320312 258.105469 131.289062 257.367188 C 131.175781 258.261719 130.472656 259.039062 129.773438 259.425781 C 127.519531 260.671875 125.148438 259.464844 124.566406 257.09375 C 123.90625 254.492188 125.769531 252.234375 127.988281 251.109375 C 130.472656 249.789062 133.429688 249.941406 136.148438 250.097656 C 138.441406 250.292969 140.734375 250.566406 143.03125 250.992188 C 142.484375 251.070312 141.941406 251.226562 141.4375 251.34375 C 138.09375 252.199219 133.972656 253.90625 133.46875 257.753906 C 133 261.253906 135.371094 264.324219 138.910156 264.597656 C 140.582031 264.714844 142.367188 264.167969 143.496094 262.886719 C 144.738281 261.410156 144.585938 259.234375 143.300781 257.871094 C 142.640625 257.132812 141.550781 256.746094 140.621094 257.054688 C 139.765625 257.367188 139.066406 258.222656 139.101562 259.117188 C 139.21875 260.710938 141.164062 261.253906 142.136719 260.359375 C 142.253906 261.410156 141.203125 262.070312 140.347656 262.304688 C 138.558594 262.769531 136.5 261.875 135.878906 260.089844 C 134.128906 255.230469 141.164062 253.480469 144.585938 253.011719 C 147.265625 252.664062 149.949219 252.78125 152.628906 253.128906 C 153.058594 253.324219 153.40625 253.519531 153.796875 253.675781 C 152.164062 253.90625 150.453125 254.140625 148.820312 254.375 C 147.773438 254.492188 146.527344 254.492188 145.671875 255.191406 C 144.972656 255.734375 144.699219 256.628906 144.855469 257.484375 C 145.246094 259.347656 147.808594 259.972656 148.9375 258.378906 C 149.363281 257.792969 149.363281 257.015625 148.664062 256.628906 C 148.664062 256.628906 148.625 256.589844 148.625 256.589844 C 150.144531 256.394531 151.621094 256.160156 153.136719 255.96875 C 154.691406 255.734375 156.363281 255.460938 157.957031 255.347656 C 159.625 255.230469 161.257812 255.460938 162.929688 255.421875 C 166.117188 255.347656 169.265625 254.453125 171.949219 252.78125 C 175.484375 250.566406 178.167969 247.339844 180.578125 243.996094 C 182.519531 244.230469 184.542969 244.382812 186.5625 244.382812 C 186.5625 244.460938 186.601562 244.578125 186.679688 244.65625 C 185.632812 246.171875 184.308594 247.648438 182.949219 248.933594 C 181.121094 250.605469 179.410156 252.390625 177.546875 254.023438 C 175.71875 255.617188 173.777344 257.09375 171.636719 258.300781 C 167.441406 260.710938 162.699219 262.03125 157.839844 261.214844 C 156.867188 261.019531 155.933594 260.789062 155.039062 260.4375 C 155.351562 260.050781 155.546875 259.542969 155.429688 259.039062 C 155.15625 257.601562 153.523438 256.902344 152.320312 257.71875 C 151.074219 258.648438 151.386719 260.28125 152.476562 261.136719 C 153.523438 262.03125 155.117188 262.460938 156.441406 262.769531 C 161.105469 263.859375 165.808594 263.042969 170.121094 261.136719 C 169.539062 263.664062 170.003906 266.386719 171.328125 268.640625 C 173.113281 271.59375 176.535156 273.691406 180.035156 272.605469 C 183.375 271.59375 185.554688 267.785156 183.804688 264.558594 C 183.027344 263.082031 181.550781 262.070312 179.878906 262.03125 C 178.246094 261.953125 176.574219 262.769531 175.835938 264.285156 C 175.40625 265.179688 175.40625 266.269531 176.03125 267.046875 C 176.613281 267.785156 177.664062 267.980469 178.441406 267.511719 C 179.957031 266.695312 179.332031 264.753906 178.011719 264.441406 C 178.050781 264.402344 178.050781 264.402344 178.089844 264.363281 C 178.828125 263.859375 179.878906 263.742188 180.695312 264.089844 C 182.636719 264.945312 182.871094 267.511719 181.820312 269.105469 C 180.65625 270.816406 178.402344 271.4375 176.457031 270.816406 C 174.476562 270.15625 173 268.367188 172.222656 266.5 C 171.40625 264.441406 171.441406 262.148438 172.296875 260.125 C 172.335938 260.089844 172.335938 260.011719 172.335938 260.011719 C 172.84375 259.738281 173.308594 259.425781 173.8125 259.15625 C 175.019531 258.417969 176.183594 257.5625 177.273438 256.628906 C 177.816406 258.417969 178.671875 260.203125 180.460938 261.058594 C 182.367188 261.953125 185.125 261.449219 186.523438 259.816406 C 187.886719 258.222656 187.847656 255.851562 186.019531 254.644531 C 185.28125 254.140625 184.269531 253.984375 183.414062 254.21875 C 182.289062 254.570312 181.316406 255.617188 181.667969 256.824219 C 182.015625 258.183594 183.882812 258.648438 184.621094 257.367188 C 184.890625 256.941406 184.816406 256.394531 184.621094 255.96875 C 185.164062 256.125 185.632812 256.589844 185.707031 257.132812 C 185.863281 258.222656 184.851562 259.078125 183.921875 259.386719 C 182.792969 259.816406 181.628906 259.816406 180.65625 259 C 179.566406 258.066406 179.140625 256.628906 178.789062 255.269531 C 180.304688 253.90625 181.742188 252.46875 183.144531 251.070312 C 184.890625 249.710938 186.410156 248.117188 187.730469 246.328125 C 189.050781 248.117188 190.566406 249.710938 192.316406 251.070312 C 193.714844 252.546875 195.152344 253.984375 196.632812 255.308594 C 196.28125 256.667969 195.855469 258.105469 194.765625 259.039062 C 193.832031 259.816406 192.589844 259.816406 191.5 259.425781 C 190.605469 259.078125 189.59375 258.222656 189.710938 257.171875 C 189.789062 256.628906 190.257812 256.160156 190.800781 256.007812 C 190.605469 256.433594 190.527344 256.976562 190.800781 257.40625 C 191.578125 258.648438 193.445312 258.183594 193.753906 256.863281 C 194.066406 255.617188 193.09375 254.570312 192.003906 254.257812 C 191.152344 254.023438 190.140625 254.179688 189.402344 254.683594 C 187.574219 255.890625 187.535156 258.261719 188.894531 259.855469 C 190.296875 261.488281 193.015625 262.03125 194.960938 261.097656 C 196.746094 260.242188 197.601562 258.457031 198.148438 256.667969 C 199.273438 257.5625 200.441406 258.417969 201.605469 259.195312 C 202.074219 259.503906 202.578125 259.777344 203.082031 260.050781 C 203.121094 260.089844 203.082031 260.125 203.121094 260.164062 C 203.976562 262.1875 204.015625 264.480469 203.199219 266.539062 C 202.460938 268.445312 200.945312 270.195312 198.964844 270.855469 C 197.058594 271.515625 194.765625 270.855469 193.597656 269.144531 C 192.511719 267.589844 192.78125 264.984375 194.726562 264.128906 C 195.542969 263.78125 196.632812 263.859375 197.332031 264.402344 C 197.371094 264.441406 197.371094 264.441406 197.410156 264.480469 C 196.085938 264.792969 195.464844 266.734375 196.980469 267.550781 C 197.796875 267.980469 198.808594 267.824219 199.390625 267.085938 C 200.050781 266.269531 200.011719 265.21875 199.585938 264.324219 C 198.847656 262.808594 197.175781 261.992188 195.542969 262.070312 C 193.871094 262.109375 192.394531 263.121094 191.617188 264.597656 C 189.867188 267.824219 192.082031 271.671875 195.386719 272.644531 C 198.886719 273.730469 202.304688 271.632812 204.09375 268.679688 C 205.453125 266.460938 205.882812 263.703125 205.300781 261.175781 C 209.613281 263.082031 214.316406 263.898438 218.980469 262.808594 C 220.304688 262.496094 221.898438 262.070312 222.945312 261.175781 C 224.074219 260.28125 224.382812 258.648438 223.101562 257.753906 C 221.933594 256.902344 220.265625 257.640625 219.992188 259.078125 C 219.914062 259.542969 220.070312 260.089844 220.378906 260.476562 C 219.488281 260.828125 218.515625 261.097656 217.582031 261.253906 C 212.722656 262.070312 207.980469 260.75 203.785156 258.339844 C 201.683594 257.09375 199.703125 255.65625 197.875 254.0625 C 196.007812 252.429688 194.300781 250.640625 192.472656 248.972656 C 191.074219 247.726562 189.789062 246.289062 188.742188 244.695312 C 188.78125 244.578125 188.855469 244.5 188.855469 244.421875 C 190.839844 244.382812 192.78125 244.230469 194.765625 243.957031 C 197.214844 247.339844 199.933594 250.605469 203.511719 252.859375 C 206.191406 254.53125 209.378906 255.460938 212.527344 255.5 C 214.199219 255.539062 215.832031 255.308594 217.503906 255.421875 C 219.097656 255.539062 220.769531 255.8125 222.324219 256.046875 C 223.839844 256.238281 225.316406 256.472656 226.832031 256.667969 C 226.832031 256.667969 226.792969 256.707031 226.792969 256.707031 C 226.09375 257.09375 226.09375 257.871094 226.523438 258.457031 C 227.648438 260.050781 230.214844 259.425781 230.601562 257.5625 C 230.757812 256.707031 230.488281 255.8125 229.789062 255.269531 C 228.933594 254.570312 227.648438 254.605469 226.640625 254.453125 C 225.007812 254.21875 223.296875 253.984375 221.664062 253.753906 C 222.050781 253.597656 222.480469 253.402344 222.828125 253.207031 C 225.472656 252.820312 228.195312 252.742188 230.875 253.089844 C 234.296875 253.558594 241.332031 255.308594 239.582031 260.164062 C 238.960938 261.953125 236.863281 262.886719 235.113281 262.382812 C 234.21875 262.109375 233.207031 261.488281 233.324219 260.4375 C 234.335938 261.292969 236.277344 260.828125 236.355469 259.195312 C 236.433594 258.261719 235.695312 257.367188 234.839844 257.132812 C 233.867188 256.785156 232.820312 257.210938 232.160156 257.949219 C 230.875 259.3125 230.71875 261.566406 231.964844 262.964844 C 233.089844 264.246094 234.878906 264.792969 236.550781 264.675781 C 240.085938 264.402344 242.457031 261.332031 241.992188 257.832031 C 241.488281 253.984375 237.289062 252.273438 234.023438 251.421875 C 233.480469 251.265625 232.9375 251.1875 232.429688 251.070312 C 234.683594 250.679688 237.015625 250.371094 239.308594 250.175781 C 242.03125 249.941406 244.984375 249.863281 247.472656 251.1875 C 249.6875 252.3125 251.554688 254.570312 250.894531 257.171875 C 250.273438 259.582031 247.902344 260.789062 245.683594 259.503906 C 244.945312 259.078125 244.246094 258.300781 244.167969 257.445312 C 245.140625 258.183594 247.046875 257.753906 246.890625 256.046875 C 246.8125 255.113281 246.035156 254.335938 245.101562 254.257812 C 244.128906 254.140625 243.199219 254.761719 242.691406 255.578125 C 241.835938 257.054688 242.457031 258.84375 243.507812 260.050781 C 244.714844 261.410156 246.734375 262.03125 248.5625 261.683594 C 252.214844 260.980469 253.652344 256.511719 252.214844 253.363281 C 250.425781 249.476562 245.917969 248.15625 241.953125 248.15625 C 238.300781 248.15625 234.566406 248.699219 230.914062 249.398438 C 232.273438 248.503906 233.519531 247.570312 234.644531 246.367188 C 236.121094 244.734375 237.5625 242.519531 237.171875 240.1875 C 236.863281 238.242188 235.035156 236.492188 232.972656 236.84375 C 231.925781 237.039062 230.875 237.933594 230.914062 239.058594 C 230.953125 240.109375 232.003906 241.003906 233.050781 240.886719 C 233.945312 240.769531 234.566406 239.992188 234.605469 239.097656 C 234.605469 239.097656 234.644531 239.136719 234.644531 239.136719 C 235.695312 240.1875 235.34375 241.78125 234.722656 242.945312 C 233.246094 245.746094 230.449219 247.53125 227.6875 249.050781 C 227.960938 248.621094 228.234375 248.195312 228.425781 247.6875 C 229.011719 246.40625 229.632812 243.996094 228.386719 242.828125 C 227.378906 241.898438 225.667969 242.363281 225.082031 243.566406 C 224.460938 244.890625 225.316406 246.132812 226.367188 246.792969 C 226.210938 247.183594 225.976562 247.570312 225.746094 247.882812 C 224.8125 249.203125 223.453125 250.097656 222.011719 250.835938 C 221.898438 250.875 221.78125 250.914062 221.703125 250.992188 C 219.71875 251.964844 217.542969 252.585938 215.367188 252.898438 C 214.511719 252.898438 213.617188 252.9375 212.761719 253.089844 C 212.453125 253.089844 212.140625 253.089844 211.867188 253.050781 C 205.453125 252.703125 200.90625 248.234375 197.214844 243.375 C 198.148438 243.21875 199.117188 243.023438 200.050781 242.789062 C 202.65625 246.09375 206.230469 248.738281 210.390625 249.632812 C 214.316406 250.449219 218.941406 249.554688 221.859375 246.640625 C 223.21875 245.277344 224.269531 243.453125 224.113281 241.507812 C 223.957031 239.566406 222.519531 237.816406 220.613281 237.308594 C 218.710938 236.804688 216.222656 237.660156 215.484375 239.640625 C 214.746094 241.546875 216.414062 243.453125 218.359375 242.984375 C 219.953125 242.636719 220.691406 240.574219 219.527344 239.410156 C 219.757812 239.410156 220.03125 239.449219 220.226562 239.566406 C 221.585938 240.070312 222.128906 241.546875 221.703125 242.90625 C 220.847656 245.550781 217.894531 247.105469 215.289062 247.609375 C 210.195312 248.503906 205.648438 245.976562 202.34375 242.285156 C 208.175781 240.652344 213.734375 238.125 218.785156 234.707031 L 234.414062 234.707031 L 234.414062 219.082031 C 237.988281 213.792969 240.59375 208.003906 242.148438 201.9375 C 245.722656 205.203125 248.171875 209.671875 247.277344 214.6875 C 246.8125 217.253906 245.296875 220.246094 242.574219 221.101562 C 241.214844 221.527344 239.777344 221.023438 239.234375 219.625 C 239.15625 219.390625 239.15625 219.15625 239.078125 218.925781 C 240.203125 220.050781 242.265625 219.3125 242.652344 217.757812 C 243.121094 215.738281 241.214844 214.144531 239.308594 214.882812 C 237.367188 215.660156 236.511719 218.070312 236.976562 220.011719 C 237.484375 221.917969 239.15625 223.355469 241.175781 223.511719 C 243.121094 223.667969 244.945312 222.617188 246.308594 221.257812 C 249.222656 218.339844 250.117188 213.714844 249.300781 209.789062 C 248.445312 205.671875 245.878906 202.171875 242.652344 199.566406 C 242.847656 198.59375 243.042969 197.625 243.199219 196.691406 C 248.015625 200.34375 252.449219 204.855469 252.757812 211.226562 C 252.757812 211.539062 252.757812 211.851562 252.796875 212.121094 C 252.683594 213.015625 252.605469 213.871094 252.605469 214.726562 C 252.292969 216.902344 251.671875 219.082031 250.699219 221.0625 C 250.621094 221.140625 250.582031 221.257812 250.542969 221.375 C 249.804688 222.8125 248.910156 224.171875 247.589844 225.105469 C 247.238281 225.378906 246.890625 225.570312 246.5 225.726562 C 245.839844 224.601562 244.558594 223.785156 243.273438 224.445312 C 242.070312 225.027344 241.566406 226.777344 242.535156 227.75 C 243.664062 228.953125 246.074219 228.332031 247.394531 227.785156 C 247.863281 227.554688 248.328125 227.320312 248.753906 227.046875 C 247.199219 229.769531 245.453125 232.605469 242.652344 234.082031 C 241.488281 234.707031 239.894531 235.054688 238.84375 234.007812 C 238.84375 234.007812 238.804688 233.96875 238.804688 233.96875 C 239.660156 233.890625 240.476562 233.304688 240.59375 232.414062 C 240.710938 231.363281 239.855469 230.351562 238.765625 230.273438 C 237.640625 230.234375 236.707031 231.246094 236.550781 232.335938 C 236.199219 234.394531 237.949219 236.222656 239.894531 236.53125 C 242.226562 236.921875 244.441406 235.484375 246.074219 234.007812 C 247.238281 232.917969 248.210938 231.636719 249.105469 230.273438 C 248.367188 233.890625 247.863281 237.660156 247.863281 241.3125 C 247.863281 245.277344 249.183594 249.789062 253.070312 251.574219 C 256.179688 252.976562 260.648438 251.613281 261.386719 247.921875 C 261.699219 246.132812 261.078125 244.113281 259.757812 242.867188 C 258.589844 241.78125 256.761719 241.195312 255.285156 242.050781 C 254.429688 242.519531 253.847656 243.492188 253.964844 244.460938 C 254.042969 245.394531 254.820312 246.171875 255.753906 246.25 C 257.421875 246.367188 257.890625 244.5 257.152344 243.53125 C 258.046875 243.644531 258.824219 244.34375 259.210938 245.046875 C 260.457031 247.300781 259.25 249.671875 256.878906 250.253906 C 254.273438 250.914062 252.019531 249.050781 250.894531 246.832031 C 249.570312 244.34375 249.726562 241.390625 249.882812 238.671875 C 250.078125 236.378906 250.347656 234.085938 250.777344 231.789062 C 250.855469 232.335938 251.011719 232.878906 251.125 233.382812 C 251.980469 236.726562 253.691406 240.847656 257.539062 241.351562 C 261.039062 241.820312 264.109375 239.449219 264.382812 235.910156 C 264.5 234.238281 263.953125 232.453125 262.671875 231.324219 C 261.195312 230.082031 259.015625 230.234375 257.65625 231.519531 C 256.917969 232.179688 256.53125 233.269531 256.839844 234.199219 C 257.152344 235.054688 258.007812 235.753906 258.902344 235.714844 C 260.496094 235.601562 261.039062 233.65625 260.144531 232.683594 C 261.195312 232.566406 261.855469 233.617188 262.089844 234.472656 C 262.554688 236.261719 261.660156 238.320312 259.871094 238.941406 C 255.015625 240.691406 253.265625 233.65625 252.796875 230.234375 C 252.449219 227.554688 252.566406 224.871094 252.914062 222.191406 C 253.109375 221.761719 253.304688 221.414062 253.460938 221.023438 C 253.691406 222.65625 253.925781 224.367188 254.160156 226 C 254.273438 227.046875 254.273438 228.292969 254.976562 229.148438 C 255.519531 229.847656 256.414062 230.121094 257.269531 229.964844 C 259.132812 229.574219 259.757812 227.007812 258.164062 225.882812 C 257.578125 225.453125 256.800781 225.453125 256.414062 226.15625 C 256.414062 226.15625 256.375 226.195312 256.375 226.195312 C 256.179688 224.675781 255.945312 223.199219 255.753906 221.683594 C 255.519531 220.128906 255.246094 218.457031 255.128906 216.863281 C 255.015625 215.191406 255.246094 213.5625 255.207031 211.890625 C 255.128906 208.703125 254.238281 205.554688 252.566406 202.871094 C 250.347656 199.335938 247.125 196.652344 243.78125 194.242188 C 244.011719 192.296875 244.167969 190.277344 244.167969 188.257812 C 244.246094 188.257812 244.363281 188.21875 244.441406 188.140625 C 245.957031 189.1875 247.433594 190.511719 248.71875 191.871094 C 250.386719 193.699219 252.175781 195.410156 253.808594 197.273438 C 255.402344 199.101562 256.878906 201.042969 258.085938 203.183594 C 260.496094 207.378906 261.816406 212.121094 261 216.980469 C 260.804688 217.953125 260.570312 218.886719 260.222656 219.78125 C 259.832031 219.46875 259.328125 219.273438 258.824219 219.390625 C 257.386719 219.664062 256.683594 221.296875 257.5 222.5 C 258.433594 223.746094 260.066406 223.433594 260.921875 222.34375 C 261.816406 221.296875 262.242188 219.703125 262.554688 218.378906 C 263.644531 213.714844 262.828125 209.011719 260.921875 204.699219 C 263.449219 205.28125 266.167969 204.816406 268.425781 203.492188 C 271.378906 201.707031 273.476562 198.285156 272.390625 194.785156 C 271.378906 191.445312 267.570312 189.265625 264.34375 191.015625 C 262.867188 191.792969 261.855469 193.269531 261.816406 194.941406 C 261.738281 196.574219 262.554688 198.246094 264.070312 198.984375 C 264.964844 199.410156 266.054688 199.410156 266.832031 198.789062 C 267.570312 198.207031 267.761719 197.15625 267.296875 196.378906 C 266.480469 194.863281 264.535156 195.484375 264.226562 196.808594 C 264.1875 196.769531 264.1875 196.769531 264.148438 196.730469 C 263.644531 195.992188 263.527344 194.941406 263.875 194.125 C 264.730469 192.183594 267.296875 191.949219 268.890625 193 C 270.601562 194.164062 271.222656 196.417969 270.601562 198.363281 C 269.941406 200.34375 268.152344 201.820312 266.285156 202.597656 C 264.226562 203.414062 261.933594 203.375 259.910156 202.523438 C 259.871094 202.484375 259.792969 202.484375 259.792969 202.484375 C 259.523438 201.976562 259.210938 201.511719 258.941406 201.003906 C 258.199219 199.800781 257.347656 198.632812 256.414062 197.546875 C 258.199219 197.003906 259.988281 196.148438 260.84375 194.359375 C 261.738281 192.453125 261.234375 189.695312 259.601562 188.296875 C 258.007812 186.933594 255.636719 186.972656 254.429688 188.800781 C 253.925781 189.539062 253.769531 190.550781 254.003906 191.40625 C 254.351562 192.53125 255.402344 193.503906 256.609375 193.152344 C 257.96875 192.804688 258.433594 190.9375 257.152344 190.199219 C 256.722656 189.925781 256.179688 190.003906 255.753906 190.199219 C 255.90625 189.65625 256.375 189.1875 256.917969 189.113281 C 258.007812 188.957031 258.863281 189.964844 259.171875 190.898438 C 259.601562 192.027344 259.601562 193.191406 258.785156 194.164062 C 257.851562 195.253906 256.414062 195.679688 255.050781 196.03125 C 253.691406 194.515625 252.253906 193.074219 250.855469 191.675781 C 249.496094 189.925781 247.902344 188.410156 246.113281 187.089844 C 247.902344 185.769531 249.496094 184.253906 250.855469 182.503906 C 252.332031 181.105469 253.769531 179.664062 255.050781 178.148438 C 256.414062 178.5 257.851562 178.925781 258.785156 180.015625 C 259.5625 180.949219 259.5625 182.191406 259.171875 183.28125 C 258.824219 184.175781 257.96875 185.183594 256.917969 185.070312 C 256.375 184.992188 255.90625 184.523438 255.753906 183.980469 C 256.179688 184.175781 256.722656 184.253906 257.152344 183.980469 C 258.394531 183.203125 257.929688 181.335938 256.609375 181.027344 C 255.363281 180.714844 254.3125 181.6875 254.003906 182.777344 C 253.769531 183.628906 253.925781 184.640625 254.429688 185.378906 C 255.636719 187.207031 258.007812 187.246094 259.601562 185.886719 C 261.234375 184.484375 261.777344 181.765625 260.84375 179.820312 C 259.988281 178.035156 258.199219 177.179688 256.414062 176.632812 C 257.308594 175.507812 258.164062 174.339844 258.941406 173.175781 C 259.25 172.707031 259.523438 172.203125 259.792969 171.699219 C 259.832031 171.660156 259.871094 171.699219 259.910156 171.660156 C 261.933594 170.804688 264.226562 170.765625 266.285156 171.582031 C 268.191406 172.320312 269.941406 173.835938 270.601562 175.816406 C 271.261719 177.722656 270.601562 180.015625 268.890625 181.183594 C 267.335938 182.269531 264.730469 182 263.875 180.054688 C 263.527344 179.238281 263.605469 178.148438 264.148438 177.449219 C 264.1875 177.410156 264.1875 177.410156 264.226562 177.371094 C 264.535156 178.695312 266.480469 179.316406 267.296875 177.800781 C 267.722656 176.984375 267.570312 175.972656 266.832031 175.390625 C 266.015625 174.730469 264.964844 174.769531 264.070312 175.195312 C 262.554688 175.933594 261.738281 177.605469 261.816406 179.238281 C 261.855469 180.910156 262.867188 182.386719 264.34375 183.164062 C 267.570312 184.914062 271.417969 182.699219 272.390625 179.394531 C 273.476562 175.894531 271.378906 172.476562 268.425781 170.6875 C 266.207031 169.328125 263.449219 168.898438 260.921875 169.480469 C 262.828125 165.167969 263.644531 160.464844 262.554688 155.800781 C 262.242188 154.476562 261.816406 152.882812 260.921875 151.835938 C 260.027344 150.707031 258.394531 150.398438 257.5 151.679688 C 256.644531 152.84375 257.386719 154.515625 258.824219 154.789062 C 259.289062 154.867188 259.832031 154.710938 260.222656 154.402344 C 260.570312 155.292969 260.84375 156.265625 261 157.199219 C 261.816406 162.058594 260.496094 166.800781 258.085938 170.996094 C 256.839844 173.097656 255.402344 175.078125 253.808594 176.90625 C 252.175781 178.773438 250.386719 180.480469 248.71875 182.308594 C 247.472656 183.707031 246.035156 184.992188 244.441406 186.039062 C 244.324219 186 244.246094 185.925781 244.167969 185.925781 C 244.128906 183.941406 243.976562 182 243.703125 180.015625 C 247.085938 177.566406 250.347656 174.847656 252.605469 171.269531 C 254.273438 168.589844 255.207031 165.402344 255.246094 162.253906 C 255.285156 160.582031 255.050781 158.949219 255.167969 157.277344 C 255.285156 155.683594 255.558594 154.011719 255.792969 152.457031 C 255.984375 150.941406 256.21875 149.464844 256.414062 147.949219 C 256.414062 147.949219 256.453125 147.988281 256.453125 147.988281 C 256.839844 148.6875 257.617188 148.6875 258.199219 148.257812 C 259.792969 147.132812 259.171875 144.566406 257.308594 144.175781 C 256.453125 144.023438 255.558594 144.292969 255.015625 144.992188 C 254.3125 145.847656 254.351562 147.132812 254.199219 148.140625 C 253.964844 149.773438 253.730469 151.484375 253.496094 153.117188 C 253.34375 152.730469 253.148438 152.300781 252.953125 151.953125 C 252.566406 149.308594 252.488281 146.585938 252.835938 143.90625 C 253.304688 140.484375 255.050781 133.449219 259.910156 135.199219 C 261.699219 135.820312 262.632812 137.917969 262.128906 139.667969 C 261.855469 140.5625 261.234375 141.574219 260.183594 141.457031 C 261.039062 140.445312 260.570312 138.503906 258.941406 138.425781 C 258.007812 138.347656 257.113281 139.085938 256.878906 139.941406 C 256.53125 140.914062 256.957031 141.960938 257.695312 142.621094 C 259.054688 143.90625 261.3125 144.0625 262.710938 142.816406 C 263.992188 141.691406 264.535156 139.902344 264.421875 138.230469 C 264.148438 134.691406 261.078125 132.324219 257.578125 132.789062 C 253.730469 133.292969 252.019531 137.492188 251.164062 140.757812 C 251.011719 141.300781 250.933594 141.84375 250.816406 142.351562 C 250.425781 140.097656 250.117188 137.765625 249.921875 135.472656 C 249.6875 132.75 249.609375 129.796875 250.933594 127.308594 C 252.058594 125.09375 254.3125 123.226562 256.917969 123.886719 C 259.328125 124.507812 260.535156 126.878906 259.25 129.097656 C 258.824219 129.835938 258.046875 130.535156 257.191406 130.613281 C 257.929688 129.640625 257.5 127.734375 255.792969 127.890625 C 254.859375 127.96875 254.082031 128.746094 254.003906 129.679688 C 253.886719 130.652344 254.507812 131.582031 255.324219 132.089844 C 256.800781 132.945312 258.589844 132.324219 259.792969 131.273438 C 261.15625 130.066406 261.777344 128.046875 261.425781 126.21875 C 260.6875 122.527344 256.179688 121.128906 253.109375 122.566406 Z M 187.1875 134.148438 C 195.816406 134.148438 204.25 136.210938 211.789062 140.175781 L 162.503906 140.175781 C 170.121094 136.210938 178.554688 134.148438 187.1875 134.148438 Z M 133.894531 187.441406 C 133.894531 178.8125 135.953125 170.375 139.917969 162.835938 L 139.917969 212.121094 C 135.953125 204.503906 133.894531 196.070312 133.894531 187.441406 Z M 187.1875 240.730469 C 178.554688 240.730469 170.121094 238.671875 162.582031 234.707031 L 211.867188 234.707031 C 204.25 238.671875 195.816406 240.730469 187.1875 240.730469 Z M 231.417969 231.714844 L 142.953125 231.714844 L 142.914062 143.207031 L 231.457031 143.207031 Z M 240.476562 187.441406 C 240.476562 196.070312 238.417969 204.503906 234.453125 212.042969 L 234.453125 162.757812 C 238.417969 170.375 240.476562 178.8125 240.476562 187.441406 Z M 240.476562 187.441406 " fill-opacity="1" fill-rule="nonzero"/></g></g></g><g fill="rgb(0%, 0%, 0%)" fill-opacity="1"><g transform="translate(160.094541, 200.891254)"><g><path d="M 1.546875 -2.1875 L 5.9375 -2.1875 L 5.96875 -40.859375 L 1.546875 -40.859375 L 1.546875 -43.046875 L 18.296875 -43.046875 L 18.296875 -40.859375 L 13.53125 -40.859375 L 13.53125 -22.671875 L 34.46875 -22.671875 L 34.5 -40.859375 L 29.734375 -40.859375 L 29.734375 -43.046875 L 46.484375 -43.046875 L 46.484375 -40.859375 L 42.0625 -40.859375 L 42.0625 -2.1875 L 46.453125 -2.1875 L 46.453125 0 L 29.734375 0 L 29.734375 -2.1875 L 34.46875 -2.1875 L 34.46875 -20.484375 L 13.53125 -20.484375 L 13.53125 -2.1875 L 18.265625 -2.1875 L 18.265625 0 L 1.546875 0 Z M 1.546875 -2.1875 "/></g></g></g><g fill="rgb(59.999084%, 49.409485%, 18.03894%)" fill-opacity="1"><g transform="translate(185.798593, 221.421963)"><g><path d="M 27.578125 -30.015625 C 28.140625 -30.671875 28.4375 -31.425781 28.46875 -32.28125 L 30.203125 -32.28125 L 30.203125 -23.453125 L 28.40625 -23.453125 C 28 -25.785156 26.882812 -27.617188 25.0625 -28.953125 C 23.238281 -30.285156 21.257812 -30.953125 19.125 -30.953125 C 12 -30.953125 8.46875 -25.976562 8.53125 -16.03125 C 8.570312 -12.082031 9.359375 -8.800781 10.890625 -6.1875 C 12.660156 -3.15625 15.234375 -1.640625 18.609375 -1.640625 C 21.179688 -1.640625 23.359375 -2.09375 25.140625 -3 C 26.921875 -3.914062 28.316406 -5.144531 29.328125 -6.6875 L 30.4375 -5.671875 C 29.894531 -4.390625 28.78125 -3.164062 27.09375 -2 C 24.769531 -0.382812 21.859375 0.421875 18.359375 0.421875 C 13.378906 0.421875 9.410156 -1.128906 6.453125 -4.234375 C 3.503906 -7.335938 2.03125 -11.285156 2.03125 -16.078125 C 2.03125 -20.878906 3.503906 -24.847656 6.453125 -27.984375 C 9.398438 -31.128906 13.492188 -32.703125 18.734375 -32.703125 C 21.578125 -32.703125 24.054688 -32.128906 26.171875 -30.984375 C 26.753906 -30.660156 27.222656 -30.335938 27.578125 -30.015625 Z M 27.578125 -30.015625 "/></g></g></g></svg>